<svg viewBox="0 0 400 300" xmlns="http://www.w3.org/2000/svg">
  <!-- Hearts frame -->
  <defs>
    <linearGradient id="heartGrad" x1="0%" y1="0%" x2="100%" y2="100%">
      <stop offset="0%" style="stop-color:#FF69B4"/>
      <stop offset="100%" style="stop-color:#FF1493"/>
    </linearGradient>
  </defs>
  
  <!-- Heart shapes around the border -->
  <!-- Top row -->
  <path d="M 40 15 C 40 5, 55 5, 55 15 C 55 25, 40 35, 40 35 C 40 35, 25 25, 25 15 C 25 5, 40 5, 40 15" fill="url(#heartGrad)"/>
  <path d="M 100 15 C 100 5, 115 5, 115 15 C 115 25, 100 35, 100 35 C 100 35, 85 25, 85 15 C 85 5, 100 5, 100 15" fill="url(#heartGrad)" opacity="0.8"/>
  <path d="M 160 15 C 160 5, 175 5, 175 15 C 175 25, 160 35, 160 35 C 160 35, 145 25, 145 15 C 145 5, 160 5, 160 15" fill="url(#heartGrad)"/>
  <path d="M 220 15 C 220 5, 235 5, 235 15 C 235 25, 220 35, 220 35 C 220 35, 205 25, 205 15 C 205 5, 220 5, 220 15" fill="url(#heartGrad)" opacity="0.8"/>
  <path d="M 280 15 C 280 5, 295 5, 295 15 C 295 25, 280 35, 280 35 C 280 35, 265 25, 265 15 C 265 5, 280 5, 280 15" fill="url(#heartGrad)"/>
  <path d="M 340 15 C 340 5, 355 5, 355 15 C 355 25, 340 35, 340 35 C 340 35, 325 25, 325 15 C 325 5, 340 5, 340 15" fill="url(#heartGrad)" opacity="0.8"/>
  
  <!-- Bottom row -->
  <path d="M 40 285 C 40 275, 55 275, 55 285 C 55 295, 40 305, 40 305 C 40 305, 25 295, 25 285 C 25 275, 40 275, 40 285" fill="url(#heartGrad)"/>
  <path d="M 100 285 C 100 275, 115 275, 115 285 C 115 295, 100 305, 100 305 C 100 305, 85 295, 85 285 C 85 275, 100 275, 100 285" fill="url(#heartGrad)" opacity="0.8"/>
  <path d="M 160 285 C 160 275, 175 275, 175 285 C 175 295, 160 305, 160 305 C 160 305, 145 295, 145 285 C 145 275, 160 275, 160 285" fill="url(#heartGrad)"/>
  <path d="M 220 285 C 220 275, 235 275, 235 285 C 235 295, 220 305, 220 305 C 220 305, 205 295, 205 285 C 205 275, 220 275, 220 285" fill="url(#heartGrad)" opacity="0.8"/>
  <path d="M 280 285 C 280 275, 295 275, 295 285 C 295 295, 280 305, 280 305 C 280 305, 265 295, 265 285 C 265 275, 280 275, 280 285" fill="url(#heartGrad)"/>
  <path d="M 340 285 C 340 275, 355 275, 355 285 C 355 295, 340 305, 340 305 C 340 305, 325 295, 325 285 C 325 275, 340 275, 340 285" fill="url(#heartGrad)" opacity="0.8"/>
  
  <!-- Left column -->
  <path d="M 15 60 C 15 50, 30 50, 30 60 C 30 70, 15 80, 15 80 C 15 80, 0 70, 0 60 C 0 50, 15 50, 15 60" fill="url(#heartGrad)" opacity="0.7"/>
  <path d="M 15 120 C 15 110, 30 110, 30 120 C 30 130, 15 140, 15 140 C 15 140, 0 130, 0 120 C 0 110, 15 110, 15 120" fill="url(#heartGrad)"/>
  <path d="M 15 180 C 15 170, 30 170, 30 180 C 30 190, 15 200, 15 200 C 15 200, 0 190, 0 180 C 0 170, 15 170, 15 180" fill="url(#heartGrad)" opacity="0.7"/>
  <path d="M 15 240 C 15 230, 30 230, 30 240 C 30 250, 15 260, 15 260 C 15 260, 0 250, 0 240 C 0 230, 15 230, 15 240" fill="url(#heartGrad)"/>
  
  <!-- Right column -->
  <path d="M 385 60 C 385 50, 400 50, 400 60 C 400 70, 385 80, 385 80 C 385 80, 370 70, 370 60 C 370 50, 385 50, 385 60" fill="url(#heartGrad)" opacity="0.7"/>
  <path d="M 385 120 C 385 110, 400 110, 400 120 C 400 130, 385 140, 385 140 C 385 140, 370 130, 370 120 C 370 110, 385 110, 385 120" fill="url(#heartGrad)"/>
  <path d="M 385 180 C 385 170, 400 170, 400 180 C 400 190, 385 200, 385 200 C 385 200, 370 190, 370 180 C 370 170, 385 170, 385 180" fill="url(#heartGrad)" opacity="0.7"/>
  <path d="M 385 240 C 385 230, 400 230, 400 240 C 400 250, 385 260, 385 260 C 385 260, 370 250, 370 240 C 370 230, 385 230, 385 240" fill="url(#heartGrad)"/>
</svg>
