<svg viewBox="0 0 400 300" xmlns="http://www.w3.org/2000/svg">
  <!-- Birthday frame -->
  <defs>
    <linearGradient id="birthdayGrad" x1="0%" y1="0%" x2="100%" y2="100%">
      <stop offset="0%" style="stop-color:#FF6B6B"/>
      <stop offset="50%" style="stop-color:#4ECDC4"/>
      <stop offset="100%" style="stop-color:#FFE66D"/>
    </linearGradient>
  </defs>
  
  <!-- Colorful border -->
  <rect x="5" y="5" width="390" height="290" fill="none" stroke="url(#birthdayGrad)" stroke-width="8" rx="15"/>
  
  <!-- Balloons -->
  <ellipse cx="40" cy="40" rx="20" ry="25" fill="#FF6B6B"/>
  <line x1="40" y1="65" x2="40" y2="100" stroke="#FF6B6B" stroke-width="2"/>
  
  <ellipse cx="80" cy="30" rx="18" ry="22" fill="#4ECDC4"/>
  <line x1="80" y1="52" x2="80" y2="90" stroke="#4ECDC4" stroke-width="2"/>
  
  <ellipse cx="360" cy="35" rx="20" ry="25" fill="#FFE66D"/>
  <line x1="360" y1="60" x2="360" y2="95" stroke="#FFE66D" stroke-width="2"/>
  
  <ellipse cx="320" cy="45" rx="18" ry="22" fill="#FF6B6B"/>
  <line x1="320" y1="67" x2="320" y2="100" stroke="#FF6B6B" stroke-width="2"/>
  
  <!-- Birthday text -->
  <text x="200" y="285" text-anchor="middle" fill="#FF6B6B" font-family="Arial, sans-serif" font-size="16" font-weight="bold">
    🎂 Happy Birthday! 🎉
  </text>
  
  <!-- Confetti dots -->
  <circle cx="50" cy="150" r="4" fill="#FFE66D"/>
  <circle cx="70" cy="180" r="3" fill="#4ECDC4"/>
  <circle cx="350" cy="160" r="4" fill="#FF6B6B"/>
  <circle cx="330" cy="200" r="3" fill="#FFE66D"/>
  <circle cx="60" cy="220" r="3" fill="#FF6B6B"/>
  <circle cx="340" cy="130" r="3" fill="#4ECDC4"/>
</svg>
